<mxfile host="app.diagrams.net" modified="2022-08-29T13:05:53.468Z" agent="5.0 (Macintosh; Intel Mac OS X 10_15_7) AppleWebKit/605.1.15 (KHTML, like Gecko) Version/15.5 Safari/605.1.15" etag="FhTOEU-1IkBfebahMjvn" version="20.2.7" type="github">
  <diagram id="C5RBs43oDa-KdzZeNtuy" name="Page-1">
    <mxGraphModel dx="786" dy="545" grid="1" gridSize="10" guides="1" tooltips="1" connect="1" arrows="1" fold="1" page="1" pageScale="1" pageWidth="1169" pageHeight="827" math="0" shadow="0">
      <root>
        <mxCell id="WIyWlLk6GJQsqaUBKTNV-0" />
        <mxCell id="WIyWlLk6GJQsqaUBKTNV-1" parent="WIyWlLk6GJQsqaUBKTNV-0" />
        <mxCell id="WIyWlLk6GJQsqaUBKTNV-2" value="" style="rounded=0;html=1;jettySize=auto;orthogonalLoop=1;fontSize=11;endArrow=block;endFill=0;endSize=8;strokeWidth=1;shadow=0;labelBackgroundColor=none;edgeStyle=orthogonalEdgeStyle;" parent="WIyWlLk6GJQsqaUBKTNV-1" source="WIyWlLk6GJQsqaUBKTNV-3" target="WIyWlLk6GJQsqaUBKTNV-6" edge="1">
          <mxGeometry relative="1" as="geometry" />
        </mxCell>
        <mxCell id="WIyWlLk6GJQsqaUBKTNV-3" value="Enter a year to check if it is a leap year" style="rounded=1;whiteSpace=wrap;html=1;fontSize=12;glass=0;strokeWidth=1;shadow=0;" parent="WIyWlLk6GJQsqaUBKTNV-1" vertex="1">
          <mxGeometry x="130" y="20" width="120" height="40" as="geometry" />
        </mxCell>
        <mxCell id="WIyWlLk6GJQsqaUBKTNV-4" value="Yes" style="rounded=0;html=1;jettySize=auto;orthogonalLoop=1;fontSize=11;endArrow=block;endFill=0;endSize=8;strokeWidth=1;shadow=0;labelBackgroundColor=none;edgeStyle=orthogonalEdgeStyle;" parent="WIyWlLk6GJQsqaUBKTNV-1" source="WIyWlLk6GJQsqaUBKTNV-6" target="WIyWlLk6GJQsqaUBKTNV-10" edge="1">
          <mxGeometry y="20" relative="1" as="geometry">
            <mxPoint as="offset" />
          </mxGeometry>
        </mxCell>
        <mxCell id="WIyWlLk6GJQsqaUBKTNV-5" value="No" style="edgeStyle=orthogonalEdgeStyle;rounded=0;html=1;jettySize=auto;orthogonalLoop=1;fontSize=11;endArrow=block;endFill=0;endSize=8;strokeWidth=1;shadow=0;labelBackgroundColor=none;" parent="WIyWlLk6GJQsqaUBKTNV-1" source="WIyWlLk6GJQsqaUBKTNV-6" target="WIyWlLk6GJQsqaUBKTNV-7" edge="1">
          <mxGeometry y="10" relative="1" as="geometry">
            <mxPoint as="offset" />
          </mxGeometry>
        </mxCell>
        <mxCell id="WIyWlLk6GJQsqaUBKTNV-6" value="is the year completely divisible by 4(remainder must be 0)" style="rhombus;whiteSpace=wrap;html=1;shadow=0;fontFamily=Helvetica;fontSize=12;align=center;strokeWidth=1;spacing=6;spacingTop=-4;" parent="WIyWlLk6GJQsqaUBKTNV-1" vertex="1">
          <mxGeometry x="110" y="120" width="160" height="130" as="geometry" />
        </mxCell>
        <mxCell id="WIyWlLk6GJQsqaUBKTNV-7" value="not a leap year" style="rounded=1;whiteSpace=wrap;html=1;fontSize=12;glass=0;strokeWidth=1;shadow=0;" parent="WIyWlLk6GJQsqaUBKTNV-1" vertex="1">
          <mxGeometry x="330" y="165" width="120" height="40" as="geometry" />
        </mxCell>
        <mxCell id="WIyWlLk6GJQsqaUBKTNV-8" value="No" style="rounded=0;html=1;jettySize=auto;orthogonalLoop=1;fontSize=11;endArrow=block;endFill=0;endSize=8;strokeWidth=1;shadow=0;labelBackgroundColor=none;edgeStyle=orthogonalEdgeStyle;" parent="WIyWlLk6GJQsqaUBKTNV-1" source="WIyWlLk6GJQsqaUBKTNV-10" edge="1">
          <mxGeometry x="-0.9259" y="20" relative="1" as="geometry">
            <mxPoint as="offset" />
            <mxPoint x="190" y="480" as="targetPoint" />
          </mxGeometry>
        </mxCell>
        <mxCell id="WIyWlLk6GJQsqaUBKTNV-9" value="Yes" style="edgeStyle=orthogonalEdgeStyle;rounded=0;html=1;jettySize=auto;orthogonalLoop=1;fontSize=11;endArrow=block;endFill=0;endSize=8;strokeWidth=1;shadow=0;labelBackgroundColor=none;" parent="WIyWlLk6GJQsqaUBKTNV-1" source="WIyWlLk6GJQsqaUBKTNV-10" target="WIyWlLk6GJQsqaUBKTNV-12" edge="1">
          <mxGeometry y="10" relative="1" as="geometry">
            <mxPoint as="offset" />
          </mxGeometry>
        </mxCell>
        <mxCell id="WIyWlLk6GJQsqaUBKTNV-10" value="is the year completely divisible by 100(remainder must be 0)" style="rhombus;whiteSpace=wrap;html=1;shadow=0;fontFamily=Helvetica;fontSize=12;align=center;strokeWidth=1;spacing=6;spacingTop=-4;" parent="WIyWlLk6GJQsqaUBKTNV-1" vertex="1">
          <mxGeometry x="105" y="280" width="170" height="150" as="geometry" />
        </mxCell>
        <mxCell id="WIyWlLk6GJQsqaUBKTNV-11" value="Not a leap year" style="rounded=1;whiteSpace=wrap;html=1;fontSize=12;glass=0;strokeWidth=1;shadow=0;" parent="WIyWlLk6GJQsqaUBKTNV-1" vertex="1">
          <mxGeometry x="330" y="535" width="120" height="40" as="geometry" />
        </mxCell>
        <mxCell id="WIyWlLk6GJQsqaUBKTNV-12" value="Not a leap year" style="rounded=1;whiteSpace=wrap;html=1;fontSize=12;glass=0;strokeWidth=1;shadow=0;" parent="WIyWlLk6GJQsqaUBKTNV-1" vertex="1">
          <mxGeometry x="330" y="335" width="120" height="40" as="geometry" />
        </mxCell>
        <mxCell id="kKtz3jp-gZglov21tieV-3" style="edgeStyle=orthogonalEdgeStyle;rounded=0;orthogonalLoop=1;jettySize=auto;html=1;exitX=1;exitY=0.5;exitDx=0;exitDy=0;entryX=0;entryY=0.5;entryDx=0;entryDy=0;" parent="WIyWlLk6GJQsqaUBKTNV-1" source="kKtz3jp-gZglov21tieV-0" target="WIyWlLk6GJQsqaUBKTNV-11" edge="1">
          <mxGeometry relative="1" as="geometry" />
        </mxCell>
        <mxCell id="kKtz3jp-gZglov21tieV-5" style="edgeStyle=orthogonalEdgeStyle;rounded=0;orthogonalLoop=1;jettySize=auto;html=1;exitX=0.5;exitY=1;exitDx=0;exitDy=0;entryX=0.5;entryY=0;entryDx=0;entryDy=0;" parent="WIyWlLk6GJQsqaUBKTNV-1" source="kKtz3jp-gZglov21tieV-0" target="kKtz3jp-gZglov21tieV-4" edge="1">
          <mxGeometry relative="1" as="geometry" />
        </mxCell>
        <mxCell id="kKtz3jp-gZglov21tieV-0" value="is the year completely divisible by 400(remainder must be 0)" style="rhombus;whiteSpace=wrap;html=1;shadow=0;fontFamily=Helvetica;fontSize=12;align=center;strokeWidth=1;spacing=6;spacingTop=-4;" parent="WIyWlLk6GJQsqaUBKTNV-1" vertex="1">
          <mxGeometry x="105" y="480" width="165" height="150" as="geometry" />
        </mxCell>
        <mxCell id="kKtz3jp-gZglov21tieV-4" value="entered year is a leap year" style="rounded=1;whiteSpace=wrap;html=1;" parent="WIyWlLk6GJQsqaUBKTNV-1" vertex="1">
          <mxGeometry x="128.75" y="680" width="117.5" height="50" as="geometry" />
        </mxCell>
        <mxCell id="kKtz3jp-gZglov21tieV-6" value="No" style="text;html=1;strokeColor=none;fillColor=none;align=center;verticalAlign=middle;whiteSpace=wrap;rounded=0;" parent="WIyWlLk6GJQsqaUBKTNV-1" vertex="1">
          <mxGeometry x="260" y="520" width="60" height="30" as="geometry" />
        </mxCell>
        <mxCell id="kKtz3jp-gZglov21tieV-7" value="Yes" style="text;html=1;strokeColor=none;fillColor=none;align=center;verticalAlign=middle;whiteSpace=wrap;rounded=0;" parent="WIyWlLk6GJQsqaUBKTNV-1" vertex="1">
          <mxGeometry x="200" y="630" width="60" height="30" as="geometry" />
        </mxCell>
        <mxCell id="-16KE4dOXDd4rgsKJocu-2" style="edgeStyle=orthogonalEdgeStyle;rounded=0;orthogonalLoop=1;jettySize=auto;html=1;exitX=0.5;exitY=1;exitDx=0;exitDy=0;entryX=0.5;entryY=0;entryDx=0;entryDy=0;" edge="1" parent="WIyWlLk6GJQsqaUBKTNV-1" source="-16KE4dOXDd4rgsKJocu-0" target="-16KE4dOXDd4rgsKJocu-1">
          <mxGeometry relative="1" as="geometry" />
        </mxCell>
        <mxCell id="-16KE4dOXDd4rgsKJocu-5" style="edgeStyle=orthogonalEdgeStyle;rounded=0;orthogonalLoop=1;jettySize=auto;html=1;exitX=1;exitY=0.5;exitDx=0;exitDy=0;entryX=0.5;entryY=0;entryDx=0;entryDy=0;" edge="1" parent="WIyWlLk6GJQsqaUBKTNV-1" source="-16KE4dOXDd4rgsKJocu-0" target="-16KE4dOXDd4rgsKJocu-3">
          <mxGeometry relative="1" as="geometry" />
        </mxCell>
        <mxCell id="-16KE4dOXDd4rgsKJocu-6" style="edgeStyle=orthogonalEdgeStyle;rounded=0;orthogonalLoop=1;jettySize=auto;html=1;exitX=0;exitY=0.5;exitDx=0;exitDy=0;entryX=0.5;entryY=0;entryDx=0;entryDy=0;" edge="1" parent="WIyWlLk6GJQsqaUBKTNV-1" source="-16KE4dOXDd4rgsKJocu-0" target="-16KE4dOXDd4rgsKJocu-4">
          <mxGeometry relative="1" as="geometry" />
        </mxCell>
        <mxCell id="-16KE4dOXDd4rgsKJocu-0" value="what is the size of pizza (S, M, L)?" style="rounded=1;whiteSpace=wrap;html=1;" vertex="1" parent="WIyWlLk6GJQsqaUBKTNV-1">
          <mxGeometry x="360" y="780" width="120" height="40" as="geometry" />
        </mxCell>
        <mxCell id="-16KE4dOXDd4rgsKJocu-28" style="edgeStyle=orthogonalEdgeStyle;rounded=0;orthogonalLoop=1;jettySize=auto;html=1;exitX=1;exitY=0.5;exitDx=0;exitDy=0;" edge="1" parent="WIyWlLk6GJQsqaUBKTNV-1" source="-16KE4dOXDd4rgsKJocu-1" target="-16KE4dOXDd4rgsKJocu-27">
          <mxGeometry relative="1" as="geometry" />
        </mxCell>
        <mxCell id="-16KE4dOXDd4rgsKJocu-40" style="edgeStyle=orthogonalEdgeStyle;rounded=0;orthogonalLoop=1;jettySize=auto;html=1;exitX=0.5;exitY=1;exitDx=0;exitDy=0;entryX=0.5;entryY=0;entryDx=0;entryDy=0;" edge="1" parent="WIyWlLk6GJQsqaUBKTNV-1" source="-16KE4dOXDd4rgsKJocu-1" target="-16KE4dOXDd4rgsKJocu-32">
          <mxGeometry relative="1" as="geometry" />
        </mxCell>
        <mxCell id="-16KE4dOXDd4rgsKJocu-1" value="Needs &amp;nbsp;pepperoni?" style="rhombus;whiteSpace=wrap;html=1;" vertex="1" parent="WIyWlLk6GJQsqaUBKTNV-1">
          <mxGeometry x="380" y="880" width="80" height="80" as="geometry" />
        </mxCell>
        <mxCell id="-16KE4dOXDd4rgsKJocu-51" style="edgeStyle=orthogonalEdgeStyle;rounded=0;orthogonalLoop=1;jettySize=auto;html=1;exitX=0.5;exitY=1;exitDx=0;exitDy=0;entryX=0.5;entryY=0;entryDx=0;entryDy=0;" edge="1" parent="WIyWlLk6GJQsqaUBKTNV-1" source="-16KE4dOXDd4rgsKJocu-3" target="-16KE4dOXDd4rgsKJocu-45">
          <mxGeometry relative="1" as="geometry" />
        </mxCell>
        <mxCell id="-16KE4dOXDd4rgsKJocu-3" value="Needs &amp;nbsp;pepperoni?" style="rhombus;whiteSpace=wrap;html=1;" vertex="1" parent="WIyWlLk6GJQsqaUBKTNV-1">
          <mxGeometry x="650" y="880" width="80" height="80" as="geometry" />
        </mxCell>
        <mxCell id="-16KE4dOXDd4rgsKJocu-9" style="edgeStyle=orthogonalEdgeStyle;rounded=0;orthogonalLoop=1;jettySize=auto;html=1;exitX=0.5;exitY=1;exitDx=0;exitDy=0;entryX=0.5;entryY=0;entryDx=0;entryDy=0;" edge="1" parent="WIyWlLk6GJQsqaUBKTNV-1" source="-16KE4dOXDd4rgsKJocu-4" target="-16KE4dOXDd4rgsKJocu-8">
          <mxGeometry relative="1" as="geometry" />
        </mxCell>
        <mxCell id="-16KE4dOXDd4rgsKJocu-21" style="edgeStyle=orthogonalEdgeStyle;rounded=0;orthogonalLoop=1;jettySize=auto;html=1;exitX=0;exitY=0.5;exitDx=0;exitDy=0;entryX=1;entryY=0.5;entryDx=0;entryDy=0;" edge="1" parent="WIyWlLk6GJQsqaUBKTNV-1" source="-16KE4dOXDd4rgsKJocu-4" target="-16KE4dOXDd4rgsKJocu-10">
          <mxGeometry relative="1" as="geometry" />
        </mxCell>
        <mxCell id="-16KE4dOXDd4rgsKJocu-4" value="Needs &amp;nbsp;pepperoni?" style="rhombus;whiteSpace=wrap;html=1;" vertex="1" parent="WIyWlLk6GJQsqaUBKTNV-1">
          <mxGeometry x="240" y="880" width="80" height="80" as="geometry" />
        </mxCell>
        <mxCell id="-16KE4dOXDd4rgsKJocu-19" style="edgeStyle=orthogonalEdgeStyle;rounded=0;orthogonalLoop=1;jettySize=auto;html=1;exitX=0;exitY=0.5;exitDx=0;exitDy=0;entryX=1;entryY=0.5;entryDx=0;entryDy=0;" edge="1" parent="WIyWlLk6GJQsqaUBKTNV-1" source="-16KE4dOXDd4rgsKJocu-8" target="-16KE4dOXDd4rgsKJocu-18">
          <mxGeometry relative="1" as="geometry" />
        </mxCell>
        <mxCell id="-16KE4dOXDd4rgsKJocu-24" style="edgeStyle=orthogonalEdgeStyle;rounded=0;orthogonalLoop=1;jettySize=auto;html=1;exitX=0.5;exitY=1;exitDx=0;exitDy=0;entryX=0.5;entryY=0;entryDx=0;entryDy=0;" edge="1" parent="WIyWlLk6GJQsqaUBKTNV-1" source="-16KE4dOXDd4rgsKJocu-8" target="-16KE4dOXDd4rgsKJocu-23">
          <mxGeometry relative="1" as="geometry" />
        </mxCell>
        <mxCell id="-16KE4dOXDd4rgsKJocu-8" value="Needs extra cheese?" style="rhombus;whiteSpace=wrap;html=1;" vertex="1" parent="WIyWlLk6GJQsqaUBKTNV-1">
          <mxGeometry x="240" y="1000" width="80" height="80" as="geometry" />
        </mxCell>
        <mxCell id="-16KE4dOXDd4rgsKJocu-10" value="Total bill $15" style="rounded=1;whiteSpace=wrap;html=1;" vertex="1" parent="WIyWlLk6GJQsqaUBKTNV-1">
          <mxGeometry x="70" y="895" width="90" height="50" as="geometry" />
        </mxCell>
        <mxCell id="-16KE4dOXDd4rgsKJocu-12" value="N" style="text;html=1;align=center;verticalAlign=middle;resizable=0;points=[];autosize=1;strokeColor=none;fillColor=none;" vertex="1" parent="WIyWlLk6GJQsqaUBKTNV-1">
          <mxGeometry x="185" y="885" width="30" height="30" as="geometry" />
        </mxCell>
        <mxCell id="-16KE4dOXDd4rgsKJocu-13" value="Y($2)" style="text;html=1;align=center;verticalAlign=middle;resizable=0;points=[];autosize=1;strokeColor=none;fillColor=none;" vertex="1" parent="WIyWlLk6GJQsqaUBKTNV-1">
          <mxGeometry x="275" y="955" width="50" height="30" as="geometry" />
        </mxCell>
        <mxCell id="-16KE4dOXDd4rgsKJocu-15" value="S($15)" style="text;html=1;align=center;verticalAlign=middle;resizable=0;points=[];autosize=1;strokeColor=none;fillColor=none;" vertex="1" parent="WIyWlLk6GJQsqaUBKTNV-1">
          <mxGeometry x="260" y="825" width="60" height="30" as="geometry" />
        </mxCell>
        <mxCell id="-16KE4dOXDd4rgsKJocu-16" value="M($20)" style="text;html=1;align=center;verticalAlign=middle;resizable=0;points=[];autosize=1;strokeColor=none;fillColor=none;" vertex="1" parent="WIyWlLk6GJQsqaUBKTNV-1">
          <mxGeometry x="410" y="825" width="60" height="30" as="geometry" />
        </mxCell>
        <mxCell id="-16KE4dOXDd4rgsKJocu-17" value="L($25)" style="text;html=1;align=center;verticalAlign=middle;resizable=0;points=[];autosize=1;strokeColor=none;fillColor=none;" vertex="1" parent="WIyWlLk6GJQsqaUBKTNV-1">
          <mxGeometry x="630" y="825" width="60" height="30" as="geometry" />
        </mxCell>
        <mxCell id="-16KE4dOXDd4rgsKJocu-18" value="Total bill $(15+2)" style="rounded=1;whiteSpace=wrap;html=1;" vertex="1" parent="WIyWlLk6GJQsqaUBKTNV-1">
          <mxGeometry x="70" y="1015" width="90" height="50" as="geometry" />
        </mxCell>
        <mxCell id="-16KE4dOXDd4rgsKJocu-22" value="N" style="text;html=1;align=center;verticalAlign=middle;resizable=0;points=[];autosize=1;strokeColor=none;fillColor=none;" vertex="1" parent="WIyWlLk6GJQsqaUBKTNV-1">
          <mxGeometry x="185" y="1015" width="30" height="30" as="geometry" />
        </mxCell>
        <mxCell id="-16KE4dOXDd4rgsKJocu-23" value="Total bill $(15+2+1)" style="rounded=1;whiteSpace=wrap;html=1;" vertex="1" parent="WIyWlLk6GJQsqaUBKTNV-1">
          <mxGeometry x="235" y="1110" width="90" height="50" as="geometry" />
        </mxCell>
        <mxCell id="-16KE4dOXDd4rgsKJocu-26" value="Y($1)" style="text;html=1;align=center;verticalAlign=middle;resizable=0;points=[];autosize=1;strokeColor=none;fillColor=none;" vertex="1" parent="WIyWlLk6GJQsqaUBKTNV-1">
          <mxGeometry x="265" y="1075" width="50" height="30" as="geometry" />
        </mxCell>
        <mxCell id="-16KE4dOXDd4rgsKJocu-27" value="Total bill $20" style="rounded=1;whiteSpace=wrap;html=1;" vertex="1" parent="WIyWlLk6GJQsqaUBKTNV-1">
          <mxGeometry x="500" y="895" width="90" height="50" as="geometry" />
        </mxCell>
        <mxCell id="-16KE4dOXDd4rgsKJocu-29" value="N" style="text;html=1;align=center;verticalAlign=middle;resizable=0;points=[];autosize=1;strokeColor=none;fillColor=none;" vertex="1" parent="WIyWlLk6GJQsqaUBKTNV-1">
          <mxGeometry x="465" y="895" width="30" height="30" as="geometry" />
        </mxCell>
        <mxCell id="-16KE4dOXDd4rgsKJocu-31" style="edgeStyle=orthogonalEdgeStyle;rounded=0;orthogonalLoop=1;jettySize=auto;html=1;exitX=0.5;exitY=1;exitDx=0;exitDy=0;entryX=0.5;entryY=0;entryDx=0;entryDy=0;" edge="1" parent="WIyWlLk6GJQsqaUBKTNV-1" source="-16KE4dOXDd4rgsKJocu-32" target="-16KE4dOXDd4rgsKJocu-35">
          <mxGeometry relative="1" as="geometry" />
        </mxCell>
        <mxCell id="-16KE4dOXDd4rgsKJocu-39" style="edgeStyle=orthogonalEdgeStyle;rounded=0;orthogonalLoop=1;jettySize=auto;html=1;exitX=1;exitY=0.5;exitDx=0;exitDy=0;entryX=0;entryY=0.5;entryDx=0;entryDy=0;" edge="1" parent="WIyWlLk6GJQsqaUBKTNV-1" source="-16KE4dOXDd4rgsKJocu-32" target="-16KE4dOXDd4rgsKJocu-33">
          <mxGeometry relative="1" as="geometry" />
        </mxCell>
        <mxCell id="-16KE4dOXDd4rgsKJocu-32" value="Needs extra cheese?" style="rhombus;whiteSpace=wrap;html=1;" vertex="1" parent="WIyWlLk6GJQsqaUBKTNV-1">
          <mxGeometry x="380" y="1000" width="80" height="80" as="geometry" />
        </mxCell>
        <mxCell id="-16KE4dOXDd4rgsKJocu-33" value="Total bill $(20+3)" style="rounded=1;whiteSpace=wrap;html=1;" vertex="1" parent="WIyWlLk6GJQsqaUBKTNV-1">
          <mxGeometry x="500" y="1015" width="90" height="50" as="geometry" />
        </mxCell>
        <mxCell id="-16KE4dOXDd4rgsKJocu-34" value="N" style="text;html=1;align=center;verticalAlign=middle;resizable=0;points=[];autosize=1;strokeColor=none;fillColor=none;" vertex="1" parent="WIyWlLk6GJQsqaUBKTNV-1">
          <mxGeometry x="465" y="1015" width="30" height="30" as="geometry" />
        </mxCell>
        <mxCell id="-16KE4dOXDd4rgsKJocu-35" value="Total bill $(20+3+1)" style="rounded=1;whiteSpace=wrap;html=1;" vertex="1" parent="WIyWlLk6GJQsqaUBKTNV-1">
          <mxGeometry x="375" y="1110" width="90" height="50" as="geometry" />
        </mxCell>
        <mxCell id="-16KE4dOXDd4rgsKJocu-36" value="Y($1)" style="text;html=1;align=center;verticalAlign=middle;resizable=0;points=[];autosize=1;strokeColor=none;fillColor=none;" vertex="1" parent="WIyWlLk6GJQsqaUBKTNV-1">
          <mxGeometry x="405" y="1075" width="50" height="30" as="geometry" />
        </mxCell>
        <mxCell id="-16KE4dOXDd4rgsKJocu-41" value="Y($3)" style="text;html=1;align=center;verticalAlign=middle;resizable=0;points=[];autosize=1;strokeColor=none;fillColor=none;" vertex="1" parent="WIyWlLk6GJQsqaUBKTNV-1">
          <mxGeometry x="415" y="955" width="50" height="30" as="geometry" />
        </mxCell>
        <mxCell id="-16KE4dOXDd4rgsKJocu-43" style="edgeStyle=orthogonalEdgeStyle;rounded=0;orthogonalLoop=1;jettySize=auto;html=1;exitX=0.5;exitY=1;exitDx=0;exitDy=0;entryX=0.5;entryY=0;entryDx=0;entryDy=0;" edge="1" parent="WIyWlLk6GJQsqaUBKTNV-1" source="-16KE4dOXDd4rgsKJocu-45" target="-16KE4dOXDd4rgsKJocu-48">
          <mxGeometry relative="1" as="geometry" />
        </mxCell>
        <mxCell id="-16KE4dOXDd4rgsKJocu-44" style="edgeStyle=orthogonalEdgeStyle;rounded=0;orthogonalLoop=1;jettySize=auto;html=1;exitX=1;exitY=0.5;exitDx=0;exitDy=0;entryX=0;entryY=0.5;entryDx=0;entryDy=0;" edge="1" parent="WIyWlLk6GJQsqaUBKTNV-1" source="-16KE4dOXDd4rgsKJocu-45" target="-16KE4dOXDd4rgsKJocu-46">
          <mxGeometry relative="1" as="geometry" />
        </mxCell>
        <mxCell id="-16KE4dOXDd4rgsKJocu-45" value="Needs extra cheese?" style="rhombus;whiteSpace=wrap;html=1;" vertex="1" parent="WIyWlLk6GJQsqaUBKTNV-1">
          <mxGeometry x="650" y="1000" width="80" height="80" as="geometry" />
        </mxCell>
        <mxCell id="-16KE4dOXDd4rgsKJocu-46" value="Total bill $(25+3)" style="rounded=1;whiteSpace=wrap;html=1;" vertex="1" parent="WIyWlLk6GJQsqaUBKTNV-1">
          <mxGeometry x="780" y="1015" width="90" height="50" as="geometry" />
        </mxCell>
        <mxCell id="-16KE4dOXDd4rgsKJocu-47" value="N" style="text;html=1;align=center;verticalAlign=middle;resizable=0;points=[];autosize=1;strokeColor=none;fillColor=none;" vertex="1" parent="WIyWlLk6GJQsqaUBKTNV-1">
          <mxGeometry x="730" y="1030" width="30" height="30" as="geometry" />
        </mxCell>
        <mxCell id="-16KE4dOXDd4rgsKJocu-48" value="Total bill $(25+3+1)" style="rounded=1;whiteSpace=wrap;html=1;" vertex="1" parent="WIyWlLk6GJQsqaUBKTNV-1">
          <mxGeometry x="645" y="1120" width="90" height="50" as="geometry" />
        </mxCell>
        <mxCell id="-16KE4dOXDd4rgsKJocu-49" value="Y($1)" style="text;html=1;align=center;verticalAlign=middle;resizable=0;points=[];autosize=1;strokeColor=none;fillColor=none;" vertex="1" parent="WIyWlLk6GJQsqaUBKTNV-1">
          <mxGeometry x="670" y="1090" width="50" height="30" as="geometry" />
        </mxCell>
        <mxCell id="-16KE4dOXDd4rgsKJocu-50" value="Y($3)" style="text;html=1;align=center;verticalAlign=middle;resizable=0;points=[];autosize=1;strokeColor=none;fillColor=none;" vertex="1" parent="WIyWlLk6GJQsqaUBKTNV-1">
          <mxGeometry x="690" y="955" width="50" height="30" as="geometry" />
        </mxCell>
        <mxCell id="-16KE4dOXDd4rgsKJocu-52" style="edgeStyle=orthogonalEdgeStyle;rounded=0;orthogonalLoop=1;jettySize=auto;html=1;exitX=1;exitY=0.5;exitDx=0;exitDy=0;" edge="1" parent="WIyWlLk6GJQsqaUBKTNV-1" target="-16KE4dOXDd4rgsKJocu-53" source="-16KE4dOXDd4rgsKJocu-3">
          <mxGeometry relative="1" as="geometry">
            <mxPoint x="735" y="920" as="sourcePoint" />
          </mxGeometry>
        </mxCell>
        <mxCell id="-16KE4dOXDd4rgsKJocu-53" value="Total bill $25" style="rounded=1;whiteSpace=wrap;html=1;" vertex="1" parent="WIyWlLk6GJQsqaUBKTNV-1">
          <mxGeometry x="775" y="895" width="90" height="50" as="geometry" />
        </mxCell>
        <mxCell id="-16KE4dOXDd4rgsKJocu-55" value="N" style="text;html=1;align=center;verticalAlign=middle;resizable=0;points=[];autosize=1;strokeColor=none;fillColor=none;" vertex="1" parent="WIyWlLk6GJQsqaUBKTNV-1">
          <mxGeometry x="735" y="895" width="30" height="30" as="geometry" />
        </mxCell>
      </root>
    </mxGraphModel>
  </diagram>
</mxfile>
